<?xml version="1.0" encoding="iso-8859-1"?>
<!-- Generator: Adobe Illustrator 19.0.0, SVG Export Plug-In . SVG Version: 6.00 Build 0)  -->
<svg version="1.1" id="Layer_1" xmlns="http://www.w3.org/2000/svg" xmlns:xlink="http://www.w3.org/1999/xlink" x="0px" y="0px"
	 viewBox="0 0 225.736 225.736" style="enable-background:new 0 0 225.736 225.736;" xml:space="preserve">
<g>
	<path style="fill:#7AC943;" d="M109.36,0.288c70.906-4.95,117.153,54.589,116.008,122.287
		c-1.146,67.881-52.939,103.357-114.082,102.945C52.938,229.645,2.978,173.956,0.457,117.762C-2.339,55.244,48.4,4.597,109.36,0.288
		z M190.029,93.699c1.879-3.667-0.642-7.013-3.025-9.671c-2.2-2.521-5.042-4.629-7.471-7.013
		C140.665,51.99,90.751,45.71,47.025,63.907c-3.483,1.971-6.6,4.125-7.15,8.984c-0.367,3.667,1.558,6.967,5.133,8.113
		c1.788,0.55,3.529,0.458,5.225,0.688c40.38-14.805,92.54-3.758,129.987,16.317C183.979,98.283,188.196,97.274,190.029,93.699z
		 M177.058,127.021c1.421-5.592-2.933-8.25-6.05-11.413c-17.28-10.404-35.98-16.225-57.202-18.013
		c-19.526-1.604-38.089,1.283-57.018,3.254c-1.971,0.779-4.217,1.238-5.867,2.154c-8.113,4.629-3.667,12.604,2.567,16.409
		c37.997-11.825,82.64-7.563,116.695,13.155C173.345,132.384,175.958,131.192,177.058,127.021z M160.649,158.555
		c1.696-4.171-0.642-7.196-3.3-10.175c-33.597-14.53-67.423-18.609-105.282-11.504c-1.421,3.346-3.346,6.554,0.642,9.534
		c3.667,2.75,9.625,1.008,14.163,0.642c24.751-7.333,59.998,1.833,82.044,15.08C153.637,162.543,158.678,163.505,160.649,158.555z"
		/>
</g>
<g>
</g>
<g>
</g>
<g>
</g>
<g>
</g>
<g>
</g>
<g>
</g>
<g>
</g>
<g>
</g>
<g>
</g>
<g>
</g>
<g>
</g>
<g>
</g>
<g>
</g>
<g>
</g>
<g>
</g>
</svg>
